<svg xmlns="http://www.w3.org/2000/svg" xml:space="preserve" fill-rule="evenodd" stroke-linecap="round" stroke-linejoin="round" clip-rule="evenodd" viewBox="0 0 24 24"><circle cx="12" cy="12" r="9.6" fill="none" stroke="#fff" stroke-width="1.92"/><path fill="#fff" fill-rule="nonzero" d="M.288-.659a.1.1 0 0 1-.027.065.09.09 0 0 1-.063.025.1.1 0 0 1-.063-.026.09.09 0 0 1-.027-.064q0-.038.027-.063a.09.09 0 0 1 .063-.027q.037 0 .063.027a.08.08 0 0 1 .027.063m.066.541V0H.037v-.118h.078v-.275H.037v-.12h.241v.395z" transform="matrix(20 0 0 20 8.264 19.34)"/></svg>